<?xml version="1.0" encoding="UTF-8"?>
<svg version="1.1" xmlns="http://www.w3.org/2000/svg" width="512" height="512">
<path d="M0 0 C4.75508473 4.41307168 7.88685361 10.69981465 8.42578125 17.17578125 C8.88733773 38.62601154 -1.00254187 54.99969017 -15.29858398 70.18164062 C-28.90518505 84.2402411 -44.55771111 91.80903989 -63.8125 95.3125 C-56.60259165 100.27932575 -51.46161512 101.0349555 -42.8125 100.3125 C-30.15940098 97.49533419 -19.44078362 90.78225843 -9.8125 82.3125 C-9.05066406 81.64605469 -8.28882813 80.97960937 -7.50390625 80.29296875 C2.40993287 71.03203411 13.69124133 55.34418028 14.26928711 41.32958984 C14.2513208 40.65105957 14.23335449 39.9725293 14.21484375 39.2734375 C14.20259766 38.52835938 14.19035156 37.78328125 14.17773438 37.015625 C14.14239915 35.45564028 14.10329884 33.89573658 14.06054688 32.3359375 C14.03091434 30.32789773 14.10234003 28.31895199 14.1875 26.3125 C14.8475 25.6525 15.5075 24.9925 16.1875 24.3125 C18.6875 24.4375 18.6875 24.4375 21.1875 25.3125 C23.70473985 28.82452535 23.5314321 32.65560456 23.5 36.8125 C23.49871094 37.51503906 23.49742187 38.21757813 23.49609375 38.94140625 C23.37971114 45.35408795 22.05174504 51.18740271 20.1875 57.3125 C23.12367412 59.60586953 26.06166562 61.89689913 29 64.1875 C29.83337891 64.83847656 30.66675781 65.48945312 31.52539062 66.16015625 C32.32783203 66.78535156 33.13027344 67.41054687 33.95703125 68.0546875 C34.69542236 68.6307373 35.43381348 69.20678711 36.19458008 69.80029297 C39.64387135 72.65108365 39.64387135 72.65108365 43.91015625 73.06640625 C46.83232871 72.3942021 49.70541046 71.61642573 52.59008789 70.80078125 C71.69658936 65.62930347 92.25809769 66.59779885 110.0625 75.5 C116.17601948 79.03781115 121.24101286 83.29406395 126.1875 88.3125 C127.06535156 89.17488281 127.06535156 89.17488281 127.9609375 90.0546875 C137.25641752 99.91638965 139.87459453 113.13277764 139.4921875 126.234375 C138.45800587 144.57614173 126.70102054 161.95304087 116.1875 176.3125 C120.36241437 181.24245208 124.64535708 186.0364779 129.0625 190.75 C129.98494507 191.73722046 129.98494507 191.73722046 130.92602539 192.74438477 C134.69927052 196.7684166 138.54267218 200.70281696 142.4765625 204.5703125 C144.23483044 206.36069493 145.86900368 208.21834233 147.5 210.125 C151.30474359 214.56094529 155.46093491 218.61793638 159.63671875 222.69921875 C162.00656732 225.12713405 164.1202159 227.62551481 166.1875 230.3125 C166.35185547 229.48564697 166.35185547 229.48564697 166.51953125 228.64208984 C171.90130107 202.11062093 180.88541651 174.63543555 198.1875 153.3125 C199.8375 153.6425 201.4875 153.9725 203.1875 154.3125 C203.98580005 157.1001369 204.41497924 158.73059469 203.34228516 161.47460938 C202.66625244 162.55452148 202.66625244 162.55452148 201.9765625 163.65625 C201.47777588 164.47971924 200.97898926 165.30318848 200.46508789 166.15161133 C199.91973389 167.02970459 199.37437988 167.90779785 198.8125 168.8125 C183.41064697 194.67829371 174.36962092 221.68788386 175.2097168 251.92407227 C175.23203369 252.85791748 175.25435059 253.7917627 175.27734375 254.75390625 C175.30691162 255.58607666 175.33647949 256.41824707 175.36694336 257.27563477 C175.1875 259.3125 175.1875 259.3125 173.1875 261.3125 C171.04296875 261.58374023 171.04296875 261.58374023 168.375 261.62109375 C166.89882202 261.65541504 166.89882202 261.65541504 165.39282227 261.69042969 C164.33506592 261.71008789 163.27730957 261.72974609 162.1875 261.75 C138.07129924 262.50267922 115.75365888 268.18168451 94.0625 278.8125 C91.03067969 280.21091995 90.52480583 280.39510551 87.125 279.5625 C86.485625 279.15 85.84625 278.7375 85.1875 278.3125 C85.1328125 275.59375 85.1328125 275.59375 86.1875 272.3125 C88.89937834 270.27257732 91.93331094 269.08770814 95.0625 267.8125 C95.96291016 267.42940674 96.86332031 267.04631348 97.79101562 266.65161133 C113.20616344 260.23536576 128.77997517 256.25167726 145.1875 253.3125 C139.9754612 248.01360404 139.9754612 248.01360404 134.4375 243.0625 C131.0291152 240.12970378 127.84350836 237.01177099 124.6875 233.8125 C121.61360481 230.69669758 118.52047786 227.65372703 115.1875 224.8125 C111.85445578 221.9712164 108.76219564 218.92756937 105.6875 215.8125 C99.30585456 209.1424346 99.30585456 209.1424346 92.1875 203.3125 C88.08530769 203.3125 85.89801252 205.45066391 82.6875 207.75 C65.74405942 219.43231034 46.92840523 228.0731475 25.94921875 224.80859375 C13.87407998 222.12352477 5.84097853 215.96597853 -2.8125 207.3125 C-2.88115773 240.0780323 -2.93402451 272.84354594 -2.96569599 305.60913376 C-2.96944813 309.47689007 -2.9733311 313.34464624 -2.97729492 317.21240234 C-2.97808185 317.98240709 -2.97886878 318.75241184 -2.97967956 319.54575007 C-2.99273559 332.01564823 -3.01639051 344.48550493 -3.04395839 356.95537849 C-3.07200711 369.74940527 -3.08867513 382.54341033 -3.09476548 395.3374666 C-3.09888304 403.2329038 -3.11189077 411.12822381 -3.1362494 419.02362494 C-3.15397305 425.07653446 -3.15586697 431.12934303 -3.15182304 437.18228149 C-3.15264972 439.66633196 -3.15863491 442.15038679 -3.17011642 444.63441086 C-3.18500834 448.02186999 -3.18146526 451.40882474 -3.17326355 454.79629517 C-3.18200207 455.78268278 -3.1907406 456.76907039 -3.19974393 457.78534853 C-3.16553469 463.0008699 -2.90786473 466.89064315 0.1875 471.3125 C3.31939036 473.3182591 5.79624231 473.56355127 9.4758749 473.56697559 C10.55364144 473.57280779 11.63140797 473.57863998 12.7418341 473.58464891 C14.51685927 473.57897992 14.51685927 473.57897992 16.32774353 473.57319641 C17.58536753 473.57702196 18.84299152 473.58084751 20.13872534 473.58478898 C23.63175087 473.5950951 27.12467406 473.59288054 30.61770809 473.58860838 C34.38396944 473.5861459 38.15020585 473.59514936 41.91645813 473.60264587 C49.29572342 473.6154081 56.67495234 473.61718468 64.05422681 473.61484561 C70.05094682 473.61306403 76.04765578 473.61480864 82.04437447 473.61907005 C83.323613 473.61996284 83.323613 473.61996284 84.62869473 473.62087366 C86.36109594 473.62208538 88.09349715 473.62329952 89.82589836 473.62451603 C106.07954142 473.63539739 122.33316374 473.63322623 138.58680797 473.62713119 C153.46267936 473.62196118 168.33848528 473.63321862 183.21434372 473.65222941 C198.48209825 473.67159173 213.74982178 473.67986665 229.01758868 473.67610615 C237.5920032 473.67419171 246.166362 473.67670534 254.74076653 473.69082069 C262.03998783 473.70271501 269.3391191 473.70416134 276.6383416 473.69203053 C280.36351254 473.68612815 284.08851863 473.68507969 287.81367874 473.69703293 C291.84934172 473.70983219 295.88460979 473.69945971 299.92027283 473.6867218 C301.10139222 473.69409609 302.28251161 473.70147037 303.49942249 473.70906812 C304.57979677 473.70186158 305.66017106 473.69465503 306.77328396 473.68723011 C307.70484796 473.68728513 308.63641196 473.68734014 309.59620517 473.68739682 C312.78784399 473.22564495 314.62035815 472.25090281 317.1875 470.3125 C319.57981044 467.01457355 319.4413075 463.89098399 319.44921303 459.90132523 C319.45520712 458.93456172 319.45520712 458.93456172 319.46132231 457.94826764 C319.47232665 455.77982667 319.46909112 453.6116396 319.4659729 451.44317627 C319.47097406 449.87642177 319.47684933 448.30966985 319.48352563 446.74292159 C319.49936142 442.43074936 319.50275828 438.11864221 319.50417423 433.80644441 C319.50786204 429.15887223 319.5230144 424.51133603 319.53678894 419.86378479 C319.55908508 411.80930201 319.5740842 403.75483199 319.58415604 395.70032501 C319.5987288 384.05480046 319.62426167 372.40932033 319.65248732 360.76382181 C319.69798084 341.87071718 319.73458506 322.97760616 319.765625 304.08447266 C319.79580007 285.72931801 319.83014553 267.37417901 319.87011719 249.01904297 C319.87257874 247.88802254 319.87504028 246.75700211 319.87757643 245.59170833 C319.88995082 239.91782771 319.9024074 234.24394728 319.91490483 228.57006693 C320.01851095 181.48423308 320.10770155 134.39837981 320.1875 87.3125 C318.87990723 87.32582367 318.87990723 87.32582367 317.54589844 87.3394165 C309.30740425 87.41975738 301.06904273 87.4805632 292.83024597 87.51974869 C288.59515593 87.54057209 284.36039116 87.56879279 280.12548828 87.61425781 C276.03410674 87.65790424 271.94303693 87.68167653 267.85144043 87.69200897 C266.29499407 87.6993668 264.73856365 87.71373476 263.18225098 87.73542023 C247.97746231 87.9387446 247.97746231 87.9387446 241.1875 83.3125 C221.86104387 62.96886197 235.1875 22.93366031 235.1875 2.3125 C163.2475 2.3125 91.3075 2.3125 17.1875 2.3125 C16.1975 -0.1625 16.1975 -0.1625 15.1875 -2.6875 C15.8475 -3.6775 16.5075 -4.6675 17.1875 -5.6875 C20.10297434 -5.99048736 22.80740245 -6.09594687 25.72622681 -6.07518005 C26.62067265 -6.08056559 27.51511849 -6.08595113 28.43666875 -6.09149987 C31.45222005 -6.10587711 34.46733837 -6.09865163 37.48291016 -6.09155273 C39.63768876 -6.09725141 41.79246433 -6.1042137 43.94723511 -6.11235046 C49.81527848 -6.13035805 55.68317293 -6.12909858 61.55123568 -6.12340808 C66.44668963 -6.12032544 71.3421146 -6.12639874 76.23756444 -6.13244683 C87.78942277 -6.14651702 99.34120719 -6.14491164 110.89306641 -6.13354492 C122.81159118 -6.12207653 134.7298906 -6.1361123 146.64838564 -6.1629414 C156.87523409 -6.18510092 167.10201182 -6.19173473 177.32888258 -6.18586498 C183.43920554 -6.18249298 189.54938424 -6.18492611 195.65968704 -6.20211601 C201.41020938 -6.21758562 207.16039857 -6.21362904 212.91090775 -6.19481087 C215.01999854 -6.19112426 217.129114 -6.19423549 219.23818207 -6.20469666 C222.12146189 -6.21790393 225.00363861 -6.20636074 227.88687134 -6.18870544 C228.71821299 -6.19831045 229.54955465 -6.20791546 230.40608847 -6.21781152 C237.92468873 -6.12333552 243.81246883 -3.55651259 249.16645813 1.78352356 C249.84625229 2.45203842 250.52604645 3.12055328 251.22644043 3.80932617 C251.94102417 4.53200684 252.65560791 5.2546875 253.3918457 5.99926758 C254.16848068 6.76889328 254.94511566 7.53851898 255.74528503 8.33146667 C258.29473207 10.86339238 260.82936539 13.40956928 263.36328125 15.95703125 C265.13769614 17.72874985 266.9127043 19.49987446 268.6882782 21.27043152 C272.40068762 24.97695402 276.10600829 28.69042042 279.8059082 32.40942383 C284.07356494 36.69886146 288.35546185 40.97367781 292.64500743 45.24121743 C296.7857474 49.36156947 300.91511174 53.49315313 305.0398159 57.62955284 C306.78994498 59.38234636 308.54303962 61.1321841 310.2991581 62.87897682 C312.75263431 65.32227509 315.19289053 67.7780649 317.63012695 70.23754883 C318.35483185 70.9541568 319.07953674 71.67076477 319.82620239 72.40908813 C320.49189743 73.08606247 321.15759247 73.7630368 321.84346008 74.46052551 C322.42025167 75.0388252 322.99704325 75.61712488 323.59131336 76.2129488 C327.39148852 81.21152612 328.56230723 85.94171958 328.56781673 92.13294125 C328.57247665 92.78526851 328.57713657 93.43759576 328.5819377 94.10969052 C328.59385083 96.28687144 328.58450707 98.46342404 328.57518005 100.64060974 C328.5793546 102.22075198 328.58483278 103.80089121 328.59149987 105.3810249 C328.60595736 109.71662715 328.60170881 114.05203936 328.59433305 118.38765204 C328.58960446 123.06599884 328.60210848 127.74430435 328.61235046 132.42263794 C328.62954965 141.58521045 328.63037618 150.74771441 328.62513756 159.91029888 C328.62109684 167.35715338 328.62253826 174.80398761 328.62788582 182.25084114 C328.62863424 183.31054628 328.62938266 184.37025143 328.63015376 185.46206884 C328.63168523 187.61482326 328.63322358 189.76757767 328.63476873 191.92033208 C328.64849774 212.10988395 328.64305319 232.29939707 328.63158352 252.48894805 C328.62164995 270.96123639 328.63459325 289.43342457 328.65851771 307.90569746 C328.68289713 326.87209626 328.69251948 345.8384484 328.68586498 364.80486256 C328.68237029 375.45346397 328.68462139 386.10198835 328.70211601 396.75057793 C328.71682347 405.81513372 328.71749244 414.87955822 328.7000451 423.9441114 C328.69152088 428.56891692 328.68942024 433.19348776 328.70469666 437.81828117 C328.71851132 442.05295888 328.71382227 446.28720013 328.69445742 450.52185238 C328.69068719 452.05272965 328.69364882 453.58364161 328.70406907 455.11448806 C328.8084948 471.63187946 328.8084948 471.63187946 322.37109375 478.15234375 C321.79488281 478.51457031 321.21867187 478.87679688 320.625 479.25 C320.04621094 479.63027344 319.46742188 480.01054687 318.87109375 480.40234375 C315.49598551 482.22693823 312.72078674 482.43896195 308.96249676 482.44392776 C307.87340439 482.44776891 306.78431201 482.45161005 305.66221684 482.4555676 C303.8604999 482.45426787 303.8604999 482.45426787 302.02238464 482.45294189 C300.74998643 482.45591302 299.47758821 482.45888414 298.16663247 482.4619453 C294.62769914 482.47002345 291.08878608 482.47180532 287.54984462 482.47254276 C283.73583549 482.47439189 279.92183691 482.4819385 276.10783386 482.48867798 C267.76490097 482.50226744 259.42197287 482.50828693 251.07903075 482.51268864 C245.87125722 482.51544993 240.66348555 482.51968706 235.45571327 482.52419281 C221.04138779 482.5363861 206.6270638 482.54668541 192.21273327 482.5500679 C190.82856331 482.55039725 190.82856331 482.55039725 189.41643031 482.55073325 C188.02892024 482.55106067 188.02892024 482.55106067 186.61337966 482.5513947 C184.73891652 482.55183817 182.86445337 482.55228473 180.98999023 482.55273438 C179.59528807 482.55306652 179.59528807 482.55306652 178.17241011 482.55340537 C163.10315872 482.55735417 148.03395567 482.57481041 132.96472295 482.5980939 C117.49924736 482.62179707 102.03379603 482.63426927 86.56830198 482.63543582 C77.88261204 482.63635314 69.19698509 482.64211991 60.51131248 482.66025543 C53.11584977 482.67564244 45.72046949 482.68078517 38.32499381 482.67251733 C34.55109594 482.66860589 30.77736416 482.66956437 27.00348663 482.68357468 C22.9133927 482.6986202 18.82367436 482.69046182 14.73356628 482.67999268 C13.53911382 482.68804908 12.34466136 482.69610548 11.11401337 482.70440602 C3.779833 482.66034511 -0.74353636 481.8818649 -6.5 477.0625 C-12.06008086 470.45051194 -12.24466411 464.40212907 -12.18431091 456.08016968 C-12.19004776 454.39436607 -12.19004776 454.39436607 -12.1959005 452.67450583 C-12.20517879 448.9122717 -12.19319773 445.1504062 -12.18139648 441.38818359 C-12.18386467 438.68905502 -12.18754114 435.98995438 -12.19281006 433.29083252 C-12.20195712 427.47908327 -12.20064472 421.66741302 -12.19262505 415.8556633 C-12.18137665 407.4387558 -12.19045008 399.02196044 -12.20518685 390.60506268 C-12.22895078 376.92958148 -12.2423226 363.25411413 -12.24633789 349.57861328 C-12.24658276 348.76057215 -12.24682763 347.94253102 -12.24707992 347.09970076 C-12.24962403 337.97987837 -12.25019354 328.86005703 -12.24914551 319.74023438 C-12.24881249 316.43636068 -12.24852709 313.13248698 -12.24829102 309.82861328 C-12.24822823 309.01339181 -12.24816544 308.19817033 -12.24810075 307.35824518 C-12.24749487 293.74015121 -12.26242143 280.12212107 -12.28912407 266.50405371 C-12.30488978 258.11450024 -12.30722862 249.72515347 -12.29199005 241.33559795 C-12.28249108 235.57987349 -12.2873327 229.82427311 -12.30320387 224.06856315 C-12.31185917 220.75337584 -12.31191538 217.4387896 -12.29867744 214.12357712 C-12.15948771 195.82847473 -12.15948771 195.82847473 -16.8125 178.3125 C-19.84742412 165.15609465 -18.64035937 150.51054119 -14.78515625 137.6875 C-14.46417969 136.57375 -14.14320312 135.46 -13.8125 134.3125 C-13.45542969 133.22710937 -13.09835938 132.14171875 -12.73046875 131.0234375 C-12.86248478 125.05128383 -16.43981529 121.48064907 -20.0625 116.9375 C-20.75730469 116.02355469 -21.45210938 115.10960937 -22.16796875 114.16796875 C-25.70060857 109.19500144 -25.70060857 109.19500144 -30.8125 106.3125 C-33.07026917 106.86356965 -33.07026917 106.86356965 -35.5625 107.75 C-43.94033854 110.16433063 -54.77662048 111.32392468 -62.94140625 107.53125 C-67.36317311 104.65110123 -71.05158417 100.98720572 -74.8125 97.3125 C-75.86647122 96.31955165 -76.92118522 95.32739126 -77.9765625 94.3359375 C-85.15547041 87.49386348 -91.20416924 81.08041591 -92.015625 70.71875 C-92.30425061 52.82396191 -84.90205378 36.36349037 -72.8125 23.3125 C-72.12244873 22.55308105 -72.12244873 22.55308105 -71.41845703 21.77832031 C-55.4121199 4.3159195 -23.09295241 -17.95574901 0 0 Z M-58.0625 30.375 C-58.9875918 31.34621074 -59.90366944 32.32605581 -60.8125 33.3125 C-61.29074219 33.82039063 -61.76898438 34.32828125 -62.26171875 34.8515625 C-68.81179018 42.10649726 -74.14092161 50.54597455 -75.8125 60.3125 C-75.4825 60.9725 -75.1525 61.6325 -74.8125 62.3125 C-72.37112656 62.23492882 -72.37112656 62.23492882 -69.8125 61.3125 C-68.39275254 58.93296224 -68.39275254 58.93296224 -67.5 55.9375 C-64.06203818 46.82744345 -58.12847073 39.61534115 -51.8125 32.3125 C-52.4725 30.9925 -53.1325 29.6725 -53.8125 28.3125 C-56.0754951 28.08725846 -56.0754951 28.08725846 -58.0625 30.375 Z M14.1875 65.3125 C12.64030136 67.37004908 12.64030136 67.37004908 11.1875 70.0625 C3.44082114 82.73443573 -7.61221535 93.42539496 -20.8125 100.3125 C-19.51201624 103.92892461 -17.96761099 106.69920534 -15.609375 109.7265625 C-14.96524658 110.5613916 -14.32111816 111.3962207 -13.6574707 112.25634766 C-12.96613037 113.14112793 -12.27479004 114.0259082 -11.5625 114.9375 C-7.24446993 120.51424098 -2.94032794 126.08992734 1.18359375 131.8125 C1.8065332 132.67536621 2.42947266 133.53823242 3.07128906 134.42724609 C4.24849909 136.06558847 5.4187651 137.70894923 6.58105469 139.35791016 C10.49384961 144.86406834 10.49384961 144.86406834 16.1875 148.3125 C24.48392763 149.34134459 30.94408355 143.70153334 37.31640625 139.0078125 C46.799811 131.42593335 61.03162433 118.48420592 62.5 105.5625 C62.03388356 100.71488899 59.89859756 97.78336254 56.28686523 94.67871094 C53.97440619 92.92199509 51.62486714 91.23384943 49.25 89.5625 C47.53438065 88.32789999 45.81953957 87.09221778 44.10546875 85.85546875 C43.26677246 85.25395996 42.42807617 84.65245117 41.56396484 84.03271484 C38.34987264 81.70617964 35.1979576 79.30599454 32.0625 76.875 C31.051875 76.09511719 30.04125 75.31523438 29 74.51171875 C27.1558602 73.06970388 25.32205244 71.61435553 23.5 70.14453125 C22.695625 69.49871094 21.89125 68.85289063 21.0625 68.1875 C20.03769531 67.34832031 20.03769531 67.34832031 18.9921875 66.4921875 C17.12832525 65.03892413 17.12832525 65.03892413 14.1875 65.3125 Z M98.1875 87.3125 C97.5275 88.6325 96.8675 89.9525 96.1875 91.3125 C96.64640625 91.85777344 97.1053125 92.40304688 97.578125 92.96484375 C106.98120675 104.52115221 109.61203011 115.60406688 108.1875 130.3125 C106.4254096 140.02279282 101.67265051 148.68177224 96.859375 157.16796875 C95.53204895 159.66445817 94.65192636 161.56009081 94.1875 164.3125 C95.8375 164.6425 97.4875 164.9725 99.1875 165.3125 C103.92490765 158.23715091 107.90004946 151.19732865 111.125 143.3125 C111.41898682 142.59521729 111.71297363 141.87793457 112.01586914 141.13891602 C116.71281003 129.30262498 116.71473947 116.36093141 112.53125 104.36328125 C109.87817386 98.33987292 106.39357925 91.53812401 101.1875 87.3125 C100.1975 87.3125 99.2075 87.3125 98.1875 87.3125 Z M106.46484375 185.9375 C105.34903352 187.05999173 104.23587334 188.18512226 103.125 189.3125 C102.55716797 189.88484375 101.98933594 190.4571875 101.40429688 191.046875 C99.99646411 192.46653829 98.59169752 193.88924097 97.1875 195.3125 C101.49981855 200.5316145 106.07807144 205.17583188 111.0625 209.75 C119.68396289 217.73718633 119.68396289 217.73718633 123.6875 221.8125 C126.0389729 224.20495718 128.45120176 226.44396423 131 228.625 C134.38945429 231.535003 137.55204228 234.63406873 140.6875 237.8125 C144.50673284 241.67416876 148.38827466 245.36400395 152.53125 248.875 C154.1875 250.3125 154.1875 250.3125 155.58203125 251.98828125 C157.85641386 253.86423187 159.47605214 253.61294602 162.375 253.5 C163.27605469 253.47292969 164.17710937 253.44585937 165.10546875 253.41796875 C165.79253906 253.38316406 166.47960937 253.34835937 167.1875 253.3125 C167.98585864 248.54255976 167.65882187 244.388779 164.796875 240.35009766 C160.57882457 235.36610057 155.88730554 230.8367783 151.1875 226.3125 C149.68517982 224.81482378 148.18453265 223.31546149 146.6875 221.8125 C146.08550781 221.22082031 145.48351562 220.62914062 144.86328125 220.01953125 C143.11731988 218.24101116 141.49523595 216.39343732 139.875 214.5 C136.96499606 211.11054461 133.86591208 207.94797507 130.6875 204.8125 C126.91288058 201.08887172 123.33247536 197.2680644 119.88671875 193.23828125 C116.8275963 189.77127581 113.59569544 186.4380646 110.1875 183.3125 C108.67715086 183.1968203 108.67715086 183.1968203 106.46484375 185.9375 Z " fill="#000000" transform="translate(137.8125,17.6875)"/>
<path d="M0 0 C0.7194393 0.00223072 1.4388786 0.00446144 2.1801191 0.00675976 C2.93910313 0.00519977 3.69808716 0.00363978 4.48007071 0.00203252 C7.04274958 -0.00198043 9.60537 0.0012133 12.1680494 0.00434887 C13.99744123 0.00299495 15.82683279 0.00121507 17.65622383 -0.00096118 C22.63961781 -0.00553692 27.62299118 -0.0037453 32.60638553 -0.0005821 C37.81049888 0.00194116 43.01461041 -0.00039598 48.21872383 -0.00196826 C56.96095017 -0.00379022 65.70316808 -0.00138314 74.44539315 0.00337231 C84.56496438 0.00881328 94.68451546 0.00705358 104.80408621 0.00154591 C113.47752831 -0.00298651 122.15096432 -0.00363509 130.82440722 -0.00101542 C136.01117719 0.00054686 141.19793767 0.00074247 146.38470703 -0.00255191 C151.26096534 -0.00543242 156.13719758 -0.00345159 161.01345307 0.00234234 C162.80738967 0.00366904 164.60132846 0.00327734 166.39526421 0.00107968 C168.8358676 -0.00163538 171.2763864 0.00175373 173.71698433 0.00675976 C174.43419291 0.00452904 175.15140149 0.00229832 175.89034367 0 C180.78374359 0.01959343 180.78374359 0.01959343 183.01204354 1.13374341 C183.0545871 3.13329087 183.05285137 5.13415977 183.01204354 7.13374341 C181.32757255 8.81821439 179.24671248 8.26103015 176.99791396 8.27214891 C176.27458371 8.27060031 175.55125346 8.2690517 174.80600411 8.26745617 C174.04293652 8.26972173 173.27986894 8.27198729 172.49367809 8.2743215 C169.91718394 8.28069033 167.34074199 8.2798303 164.7642408 8.27900708 C162.92499653 8.28199677 161.08575289 8.28539885 159.24651009 8.28918469 C154.23626088 8.2980481 149.22602874 8.30036378 144.21577245 8.30100048 C140.04055748 8.30194759 135.86534653 8.30562359 131.69013309 8.30917257 C121.84390262 8.31732599 111.99768129 8.31975599 102.15144783 8.31904614 C91.97732977 8.31844507 81.80326469 8.32900069 71.62916005 8.3447898 C62.90900841 8.35784283 54.18887414 8.36323098 45.46871281 8.36259073 C40.25398162 8.36233509 35.03929747 8.36522259 29.82457596 8.37576878 C24.92203271 8.38541226 20.01958185 8.38555488 15.11703545 8.37825215 C13.31342169 8.37720162 11.5098023 8.37959669 9.70619828 8.38561261 C7.25237718 8.39326981 4.79888015 8.38872981 2.34506661 8.38098156 C1.62396708 8.38612513 0.90286755 8.39126869 0.15991652 8.39656812 C-4.75968522 8.36201465 -4.75968522 8.36201465 -6.98795646 6.13374341 C-6.30072574 0.49845144 -5.5833275 0.02244581 0 0 Z " fill="#000000" transform="translate(207.98795646429062,399.8662565946579)"/>
<path d="M0 0 C1.12773032 -0.00467997 1.12773032 -0.00467997 2.27824306 -0.00945449 C4.80479645 -0.01745033 7.33111072 -0.01110473 9.85766602 -0.00482178 C11.66602723 -0.00753094 13.47438735 -0.01109144 15.28274536 -0.01544189 C20.1999951 -0.0245771 25.11716113 -0.02101698 30.03441238 -0.01468372 C35.1739856 -0.00962958 40.31355151 -0.01431354 45.453125 -0.01745605 C54.08505544 -0.02109741 62.7169517 -0.01629216 71.34887695 -0.0067749 C81.33670638 0.00410997 91.32445416 0.00058451 101.31228161 -0.01042771 C109.87877954 -0.01949576 118.44525286 -0.02078823 127.01175404 -0.01555037 C132.13202567 -0.01242802 137.25225889 -0.01202861 142.37252808 -0.01862335 C147.18564563 -0.02438917 151.99865764 -0.02041395 156.81176376 -0.00883484 C158.58109232 -0.00618416 160.35042972 -0.00696027 162.11975479 -0.01136017 C164.52933907 -0.01680101 166.93858217 -0.00999945 169.34814453 0 C170.05329413 -0.00446144 170.75844374 -0.00892289 171.48496151 -0.01351953 C175.11511188 0.01583092 176.56102728 0.17860396 179.67407227 2.25396729 C179.92407227 4.81646729 179.92407227 4.81646729 179.67407227 7.25396729 C177.98366367 8.94437588 175.88513181 8.37874594 173.62910748 8.38771069 C172.90120416 8.38547997 172.17330084 8.38324925 171.42333984 8.38095093 C170.27155479 8.38329091 170.27155479 8.38329091 169.09650135 8.38567817 C166.50384965 8.38969116 163.91125573 8.38649738 161.31860352 8.38336182 C159.46788498 8.38471573 157.61716672 8.3864956 155.76644897 8.38867188 C150.72527283 8.39324745 145.68411705 8.39145614 140.64294052 8.38829279 C135.37963555 8.38576983 130.11633238 8.38810655 124.85302734 8.38967896 C116.01244797 8.39150084 107.17187694 8.38909385 98.33129883 8.38433838 C88.09469211 8.37889572 77.8581053 8.38065837 67.62149906 8.38616478 C58.84955963 8.39069538 50.07762622 8.39134672 41.305686 8.38872612 C36.05914419 8.38716305 30.81261177 8.38697039 25.56607056 8.3902626 C20.63482348 8.39314055 15.70360221 8.39116705 10.77235794 8.38536835 C8.95703804 8.38404033 7.141716 8.38443556 5.32639694 8.38663101 C2.8591697 8.38934091 0.39202649 8.38596338 -2.07519531 8.38095093 C-3.16705029 8.38429701 -3.16705029 8.38429701 -4.28096294 8.38771069 C-9.21177788 8.36811714 -9.21177788 8.36811714 -10.32592773 7.25396729 C-10.57592773 4.81646729 -10.57592773 4.81646729 -10.32592773 2.25396729 C-6.72773966 -0.14482477 -4.15384355 -0.02628114 0 0 Z " fill="#000000" transform="translate(211.325927734375,435.74603271484375)"/>
<path d="M0 0 C1.72900291 -0.00422974 1.72900291 -0.00422974 3.49293518 -0.00854492 C4.76882004 -0.00652069 6.0447049 -0.00449646 7.35925293 -0.00241089 C8.70751493 -0.00376492 10.05577655 -0.00554486 11.40403748 -0.00772095 C15.07542508 -0.01229509 18.74678471 -0.0105058 22.41817284 -0.00734186 C26.25208998 -0.00481816 30.08600465 -0.00715583 33.91992188 -0.00872803 C40.35950147 -0.01054969 46.79906961 -0.00814349 53.23864746 -0.00338745 C60.69414643 0.00205517 68.14961806 0.00029251 75.60511637 -0.00521386 C81.99491056 -0.00974507 88.3846965 -0.01039549 94.77449179 -0.00777519 C98.59580528 -0.00621246 102.4171059 -0.00601853 106.23841858 -0.00931168 C109.83016305 -0.01219051 113.42187212 -0.01021447 117.01361275 -0.00441742 C118.96837947 -0.00245429 120.92314918 -0.00544363 122.87791443 -0.00854492 C124.60691734 -0.00431519 124.60691734 -0.00431519 126.37084961 0 C127.88294636 0.00056554 127.88294636 0.00056554 129.42559052 0.0011425 C131.6854248 0.12698364 131.6854248 0.12698364 132.6854248 1.12698364 C132.9354248 3.56448364 132.9354248 3.56448364 132.6854248 6.12698364 C129.31441071 8.37432637 128.20119838 8.37792127 124.25769043 8.38095093 C122.5667627 8.3894104 122.5667627 8.3894104 120.8416748 8.39804077 C119.6041748 8.39399231 118.3666748 8.38994385 117.0916748 8.38577271 C115.78907715 8.38927734 114.48647949 8.39278198 113.14440918 8.39639282 C109.57008147 8.4055192 105.99586907 8.40197158 102.42153931 8.39563465 C98.68332607 8.39057594 94.9451228 8.39526575 91.20690918 8.39840698 C84.92889633 8.402047 78.65093052 8.3972466 72.3729248 8.38772583 C65.11166362 8.37684119 57.85051475 8.38036675 50.58925629 8.39137864 C44.35819283 8.4004505 38.1271632 8.40173729 31.89609528 8.3965013 C28.1731024 8.39338104 24.45016234 8.39297379 20.72717285 8.39957428 C16.57777235 8.40641671 12.42856589 8.39693664 8.2791748 8.38577271 C7.0416748 8.38982117 5.8041748 8.39386963 4.5291748 8.39804077 C3.40188965 8.39240112 2.27460449 8.38676147 1.11315918 8.38095093 C0.13165894 8.38019688 -0.84984131 8.37944283 -1.86108398 8.37866592 C-4.3145752 8.12698364 -4.3145752 8.12698364 -7.3145752 6.12698364 C-6.26973561 0.30573455 -5.92003059 0.00221415 0 0 Z " fill="#000000" transform="translate(233.3145751953125,363.8730163574219)"/>
<path d="M0 0 C0 1.65 0 3.3 0 5 C-1.216875 5.391875 -2.43375 5.78375 -3.6875 6.1875 C-5.46031554 6.78582525 -7.23094101 7.39065746 -9 8 C-9.99 8.3403125 -10.98 8.680625 -12 9.03125 C-27.64129186 14.70505195 -40.83250764 23.25452213 -52.23046875 35.37109375 C-52.81441406 35.90863281 -53.39835937 36.44617188 -54 37 C-58.3 36.7 -58.3 36.7 -60 35 C-60.5 32.875 -60.5 32.875 -60 30 C-49.92959112 17.72615769 -17.22075703 -9.01576356 0 0 Z " fill="#000000" transform="translate(340,289)"/>
</svg>
