<?xml version="1.0" encoding="UTF-8"?>
<svg version="1.1" xmlns="http://www.w3.org/2000/svg" width="512" height="512">
<path d="M0 0 C5.31566522 3.30499246 10.69208186 6.37035401 16.25 9.25 C48.21448976 26.39527209 72.25029295 56.44854068 83 91 C94.02485569 128.7477631 89.65768218 168.01948669 71.09570312 202.63964844 C53.06858666 234.8671997 22.67407692 258.01509987 -12.34375 268.9765625 C-20.24527632 271.18831453 -27.9781211 272.98086092 -36.19140625 273.16796875 C-47.78186793 273.31146811 -47.78186793 273.31146811 -57.22900391 279.27709961 C-59.15824914 281.55608916 -60.96421414 283.9015754 -62.71777344 286.31787109 C-64.68092241 288.89328931 -66.97985375 291.07385591 -69.3125 293.3125 C-72.14022543 296.10431781 -74.85669052 298.91636284 -77.4375 301.9375 C-80.30172374 305.28925119 -83.36334469 308.40556078 -86.5 311.5 C-89.59491872 314.55337618 -92.61934297 317.62323708 -95.4375 320.9375 C-98.45352827 324.476791 -101.69447901 327.73494445 -105 331 C-108.28467991 334.24451876 -111.50734004 337.47922358 -114.5 341 C-117.97610577 345.0895362 -121.78249656 348.8096054 -125.59765625 352.578125 C-128.34325486 355.30308001 -130.99269952 358.05023473 -133.5 361 C-136.9754355 365.08874765 -140.78100237 368.80816684 -144.59545898 372.57592773 C-147.95060894 375.9058233 -151.09725452 379.33931399 -154.16015625 382.94140625 C-156.95835792 386.07230281 -159.96773656 388.98829695 -162.95556641 391.93603516 C-165.56120739 394.52022318 -168.06053109 397.14209158 -170.4375 399.9375 C-173.45352827 403.476791 -176.69447901 406.73494445 -180 410 C-183.28467991 413.24451876 -186.50734004 416.47922358 -189.5 420 C-192.97232117 424.08508373 -196.77280104 427.80330123 -200.58666992 431.56494141 C-203.45494451 434.40836876 -206.19686035 437.29291445 -208.8125 440.375 C-213.32580561 445.63322013 -217.93084291 450.72755172 -225 452 C-231.59935318 452.19699562 -237.10427768 450.53020459 -242 446 C-244.33202801 442.54239778 -245.68758947 438.93723159 -247 435 C-247.99 435.33 -248.98 435.66 -250 436 C-256.47744485 436.77933755 -261.69016906 435.89850333 -267 432 C-271.24936139 428.02479096 -272.68643943 423.80370685 -273.13256836 418.09863281 C-272.84210448 411.30937387 -270.36973975 404.86330066 -268.3125 398.4375 C-267.7727499 396.70239017 -267.23489956 394.96668849 -266.69873047 393.23046875 C-265.49004189 389.32625995 -264.27059286 385.4256118 -263.04443359 381.52685547 C-260.84031962 374.50729128 -258.67785893 367.47516214 -256.51953125 360.44140625 C-255.71864462 357.83209502 -254.91766773 355.22281149 -254.11669922 352.61352539 C-253.81212421 351.62115891 -253.81212421 351.62115891 -253.50139618 350.60874462 C-252.02513982 345.7999384 -250.54505854 340.99232006 -249.06298828 336.18530273 C-244.47548844 321.30540816 -239.89920307 306.42218629 -235.34765625 291.53125 C-235.1130752 290.76386442 -234.87849415 289.99647884 -234.63680458 289.20583916 C-232.2881876 281.52194574 -229.94186316 273.83735965 -227.60121632 266.15103436 C-226.46647983 262.42473615 -225.33106695 258.6986443 -224.1953125 254.97265625 C-223.9747135 254.24883821 -223.75411449 253.52502018 -223.52683067 252.77926826 C-220.47621752 242.77484131 -217.37715815 232.78690686 -214.2421875 222.80859375 C-213.18027373 219.4106645 -212.11942386 216.01240519 -211.05899048 212.61401367 C-210.09161135 209.53029828 -209.10898306 206.45173053 -208.12573242 203.37304688 C-207.5530633 201.53931539 -206.98115318 199.70534662 -206.41015625 197.87109375 C-206.14681488 197.06425644 -205.88347351 196.25741913 -205.6121521 195.4261322 C-203.23767219 187.6818927 -204.57035439 182.30830818 -208.25 175.125 C-212.21650529 167.00140964 -214.87899705 158.77676997 -217 150 C-217.16516113 149.32727051 -217.33032227 148.65454102 -217.50048828 147.96142578 C-222.20148093 127.84973335 -222.00307205 105.03476384 -217 85 C-216.80132324 84.19804199 -216.60264648 83.39608398 -216.39794922 82.56982422 C-213.32660452 70.59042956 -208.99806087 59.79472532 -203 49 C-202.41089844 47.90945312 -201.82179688 46.81890625 -201.21484375 45.6953125 C-195.21349768 34.95030564 -187.33397561 25.99151864 -179 17 C-178.47277344 16.40703125 -177.94554687 15.8140625 -177.40234375 15.203125 C-132.53838272 -32.98834209 -52.53614485 -34.82649941 0 0 Z M-174 28 C-174.76699219 28.76957031 -175.53398437 29.53914063 -176.32421875 30.33203125 C-198.56223503 53.67275908 -210.65502562 86.92137583 -210.1484375 119.0390625 C-208.24613589 156.98497356 -192.985702 190.44379557 -165.02392578 216.21289062 C-139.51763171 238.73473291 -104.86352919 250.08503282 -71 248 C-36.24108726 245.53618208 -4.89784112 229.58562565 18.66015625 204.125 C31.45768276 189.25059515 40.64615205 172.50836418 46.375 153.75 C46.73307739 152.58186768 46.73307739 152.58186768 47.09838867 151.39013672 C50.28794662 140.31839091 51.36993331 129.24082401 51.3125 117.75 C51.30758545 116.57268311 51.3026709 115.39536621 51.29760742 114.18237305 C50.82897694 79.12640951 35.56928469 47.03478457 10.84838867 22.48388672 C-14.95758953 -2.27541544 -48.88704889 -13.65105785 -84.203125 -13.20703125 C-119.10496173 -12.26825247 -149.77883433 3.55282034 -174 28 Z M-195 199 C-198.13108787 205.70663626 -200.16168858 212.72416543 -202.296875 219.796875 C-202.72208292 221.19455887 -203.14766585 222.59212869 -203.57359314 223.98959351 C-204.48883068 226.99501199 -205.40165666 230.00114815 -206.31259155 233.00787354 C-207.77181562 237.82402733 -209.23656144 242.63849031 -210.70239258 247.45263672 C-211.20729928 249.11105084 -211.71219729 250.76946761 -212.21708679 252.42788696 C-212.46971472 253.25768696 -212.72234264 254.08748695 -212.98262596 254.9424324 C-213.76032835 257.49766306 -214.53750177 260.05305407 -215.31452942 262.60848999 C-220.02884368 278.1106911 -224.77461501 293.60315875 -229.52951145 309.09295368 C-231.20486103 314.55090909 -232.8779476 320.0095545 -234.55004883 325.46850586 C-238.77194761 339.24883786 -243.00219186 353.02635446 -247.27494812 366.79101562 C-248.8598987 371.89703403 -250.43963727 377.00466023 -252.01811695 382.11268234 C-253.27622641 386.18209902 -254.54162924 390.2491491 -255.81276894 394.31451321 C-256.76593125 397.37038386 -257.70826514 400.42959432 -258.65234375 403.48828125 C-258.99485168 404.57513718 -259.33735962 405.6619931 -259.69024658 406.78178406 C-261.90214809 413.75220755 -261.90214809 413.75220755 -262 421 C-259.98668966 423.9425305 -258.70637112 424.82340722 -255.25 425.6875 C-247.34735406 424.01578644 -241.82185876 415.75293831 -236.57495117 409.98291016 C-233.36654949 406.4551361 -230.0838705 403.03734488 -226.6875 399.6875 C-223.88037155 396.91596114 -221.18334219 394.12719915 -218.625 391.125 C-215.58569255 387.56713773 -212.3263598 384.28558309 -209 381 C-205.71531689 377.75548422 -202.49265974 374.52077616 -199.5 371 C-196.5073396 367.47922306 -193.2846735 364.2445247 -190 361 C-186.73617385 357.77601913 -183.53169859 354.56482153 -180.5625 351.0625 C-176.87389834 346.7213693 -172.80756243 342.78165659 -168.76025391 338.77978516 C-165.29629877 335.33979512 -162.02882616 331.81455056 -158.87109375 328.08984375 C-155.85849309 324.72503925 -152.61427958 321.59454812 -149.40209961 318.42163086 C-146.65658173 315.69675921 -144.00722524 312.94967675 -141.5 310 C-138.02389423 305.9104638 -134.21750344 302.1903946 -130.40234375 298.421875 C-127.65674514 295.69691999 -125.00730048 292.94976527 -122.5 290 C-119.02724566 285.91440666 -115.2249751 282.19758657 -111.41333008 278.43286133 C-107.97839763 275.02389781 -104.73938131 271.51076942 -101.6015625 267.82421875 C-98.88724289 264.73254251 -95.94790392 261.86726218 -93 259 C-95.86843099 257.08771267 -97.03188144 256.65305297 -100.2890625 256.140625 C-101.13960205 255.99786133 -101.9901416 255.85509766 -102.86645508 255.70800781 C-103.7767749 255.55686523 -104.68709473 255.40572266 -105.625 255.25 C-130.04820543 250.85696091 -152.05687734 240.02648314 -171 224 C-171.81210938 223.32324219 -172.62421875 222.64648438 -173.4609375 221.94921875 C-179.51104648 216.72932977 -184.60286511 210.98047075 -189.65234375 204.8203125 C-191.36945094 202.7574982 -193.05323818 200.83753756 -195 199 Z " fill="#000000" transform="translate(348,42)"/>
<path d="M0 0 C1 3 1 3 1 6 C-0.0625 7.875 -0.0625 7.875 -2 9 C-6.73433349 9.41342067 -9.4559352 8.55744392 -13.5625 6.25 C-33.98453502 -4.42687158 -57.07085957 -5.42836185 -78.9375 1.125 C-91.91512327 5.26672788 -102.91410308 11.8371053 -113 21 C-113.62003906 21.53882813 -114.24007812 22.07765625 -114.87890625 22.6328125 C-120.07788047 27.43372141 -123.94340977 33.30292996 -127.9609375 39.0859375 C-130 42 -130 42 -131 43 C-133.33944736 42.71269945 -135.6739143 42.38063221 -138 42 C-139.00574538 37.81904799 -139.34918933 35.70524233 -137.41015625 31.7890625 C-136.63542969 30.74492188 -135.86070312 29.70078125 -135.0625 28.625 C-134.43734497 27.77929443 -134.43734497 27.77929443 -133.79956055 26.91650391 C-132.55661007 25.25781852 -131.28443429 23.6266752 -130 22 C-129.37609375 21.19046875 -128.7521875 20.3809375 -128.109375 19.546875 C-113.49017345 1.87670965 -90.12876411 -10.9508366 -67.36669922 -13.78466797 C-44.2199509 -15.89065435 -19.63946696 -13.68591321 0 0 Z " fill="#000000" transform="translate(321,74)"/>
</svg>
